<?xml version="1.0" standalone="no"?>
<!DOCTYPE svg PUBLIC "-//W3C//DTD SVG 20010904//EN"
 "http://www.w3.org/TR/2001/REC-SVG-20010904/DTD/svg10.dtd">
<svg version="1.0" xmlns="http://www.w3.org/2000/svg"
 width="88.000000pt" height="88.000000pt" viewBox="0 0 88.000000 88.000000"
 preserveAspectRatio="xMidYMid meet">
<metadata>
Created by potrace 1.14, written by Peter Selinger 2001-2017
</metadata>
<g transform="translate(0.000000,88.000000) scale(0.100000,-0.100000)"
fill="#000000" stroke="none">
<path d="M147 860 c4 -14 0 -20 -13 -22 -11 0 -23 -2 -29 -3 -5 -2 -31 -3 -58
-4 l-47 -1 0 -405 1 -405 307 -1 c169 -1 357 -3 418 -5 160 -5 155 -7 153 85
l-2 76 -31 0 c-17 -1 -47 2 -66 6 -27 6 -20 7 30 6 l65 -2 3 104 3 103 -73 -3
-73 -4 -3 63 -3 62 75 0 74 0 1 125 1 125 -25 0 c-23 0 -25 4 -25 49 0 30 5
51 13 54 7 4 6 6 -5 6 -9 1 -19 -5 -22 -11 -3 -9 -8 -8 -16 5 -10 16 -37 17
-335 17 -318 0 -323 0 -318 -20z m523 -38 c-8 -3 -18 -10 -22 -16 -5 -6 -8 -2
-8 11 0 17 4 20 22 15 16 -4 18 -7 8 -10z m59 -3 c-15 -9 -32 -2 -24 11 3 5
13 6 21 3 12 -4 13 -8 3 -14z m61 -11 c0 -5 -4 -8 -10 -8 -5 0 -10 10 -10 23
0 18 2 19 10 7 5 -8 10 -18 10 -22z m-733 -14 c-3 -3 -12 -4 -19 -1 -8 3 -5 6
6 6 11 1 17 -2 13 -5z m191 -16 c-3 -7 -13 -13 -23 -13 -10 0 -20 6 -22 13 -3
7 5 12 22 12 17 0 25 -5 23 -12z m-38 -213 c0 -122 -2 -145 -15 -145 -16 0
-17 10 -17 145 0 141 1 145 17 145 13 0 15 -23 15 -145z m70 0 c0 -114 -3
-145 -13 -145 -20 0 -25 9 -19 33 5 20 6 20 13 1 7 -18 8 -17 8 4 1 12 -5 22
-12 22 -8 0 -12 15 -12 45 1 56 12 70 13 14 1 -22 3 -44 6 -47 3 -3 6 42 6
101 0 92 -2 106 -17 110 -14 4 -12 5 5 6 22 1 22 0 22 -144z m68 3 c-3 -119
-5 -143 -18 -143 -10 0 -16 12 -18 37 -2 28 0 37 10 33 11 -4 14 16 14 100 0
83 -3 105 -13 101 -7 -3 -13 -1 -13 4 0 6 9 10 20 10 20 0 20 -5 18 -142z
m237 102 c3 -5 -1 -10 -10 -10 -9 0 -13 5 -10 10 3 6 8 10 10 10 2 0 7 -4 10
-10z m235 -26 c0 -8 -5 -12 -10 -9 -6 4 -8 11 -5 16 9 14 15 11 15 -7z m-90
-4 c0 -5 -2 -10 -4 -10 -3 0 -8 5 -11 10 -3 6 -1 10 4 10 6 0 11 -4 11 -10z
m-123 -32 c-3 -8 -6 -5 -6 6 -1 11 2 17 5 13 3 -3 4 -12 1 -19z m143 2 c0 -5
-4 -10 -10 -10 -5 0 -10 5 -10 10 0 6 5 10 10 10 6 0 10 -4 10 -10z m75 0 c3
-5 -1 -10 -9 -10 -9 0 -16 5 -16 10 0 6 4 10 9 10 6 0 13 -4 16 -10z m-200
-30 c3 -5 -1 -10 -9 -10 -9 0 -16 5 -16 10 0 6 4 10 9 10 6 0 13 -4 16 -10z
m-308 -42 c-3 -8 -6 -5 -6 6 -1 11 2 17 5 13 3 -3 4 -12 1 -19z m284 2 c9 13
10 13 6 0 -6 -22 -37 -25 -37 -3 0 15 2 16 10 3 9 -13 11 -13 21 0z m-131 -20
c0 -5 -4 -10 -10 -10 -5 0 -10 5 -10 10 0 6 5 10 10 10 6 0 10 -4 10 -10z m50
-24 c0 -11 -19 -15 -25 -6 -3 5 1 10 9 10 9 0 16 -2 16 -4z m-363 -12 c-3 -3
-12 -4 -19 -1 -8 3 -5 6 6 6 11 1 17 -2 13 -5z m223 -164 c0 -5 -4 -10 -10
-10 -5 0 -10 5 -10 10 0 6 5 10 10 10 6 0 10 -4 10 -10z m440 -10 c0 -6 -22
-10 -50 -10 -27 0 -50 4 -50 9 0 4 23 9 50 10 28 0 50 -4 50 -9z m-517 -29
c29 -1 46 -5 42 -11 -4 -6 -54 -10 -117 -10 l-110 0 4 -25 c3 -14 1 -25 -3
-25 -5 0 -9 17 -9 38 l0 37 72 -2 c40 -1 95 -2 121 -2z m-213 -36 c0 -15 -6
-25 -14 -25 -19 0 -28 14 -20 34 10 25 34 19 34 -9z m350 -5 c0 -5 -7 -10 -15
-10 -8 0 -15 5 -15 10 0 6 7 10 15 10 8 0 15 -4 15 -10z m0 -30 c0 -5 -7 -10
-15 -10 -8 0 -15 5 -15 10 0 6 7 10 15 10 8 0 15 -4 15 -10z m-360 -34 c0 -20
-27 -39 -45 -32 -25 9 -30 37 -10 52 20 15 55 2 55 -20z m543 7 c-7 -2 -21 -2
-30 0 -10 3 -4 5 12 5 17 0 24 -2 18 -5z m-23 -48 c0 -12 -18 -15 -100 -15
-82 0 -100 3 -100 15 0 12 18 15 100 15 82 0 100 -3 100 -15z m-495 -35 c3 -5
1 -10 -4 -10 -6 0 -11 5 -11 10 0 6 2 10 4 10 3 0 8 -4 11 -10z m535 -20 c0
-5 -5 -10 -11 -10 -5 0 -7 5 -4 10 3 6 8 10 11 10 2 0 4 -4 4 -10z m170 -28
c0 -13 -8 -17 -38 -16 -20 1 -54 2 -74 3 -25 1 -38 6 -38 15 0 10 16 13 61 11
33 0 63 3 65 7 8 13 24 -1 24 -20z m-510 8 c0 -5 -4 -10 -10 -10 -5 0 -10 5
-10 10 0 6 5 10 10 10 6 0 10 -4 10 -10z m-240 -20 c0 -5 -4 -10 -9 -10 -6 0
-13 5 -16 10 -3 6 1 10 9 10 9 0 16 -4 16 -10z m587 4 c-3 -3 -12 -4 -19 -1
-8 3 -5 6 6 6 11 1 17 -2 13 -5z"/>
<path d="M194 595 c0 -60 1 -84 3 -52 2 32 2 81 0 110 -2 29 -3 3 -3 -58z"/>
<path d="M192 455 c0 -16 2 -22 5 -12 2 9 2 23 0 30 -3 6 -5 -1 -5 -18z"/>
<path d="M320 460 c0 -11 2 -20 4 -20 2 0 6 9 9 20 3 11 1 20 -4 20 -5 0 -9
-9 -9 -20z"/>
<path d="M760 455 c0 -20 5 -25 25 -25 20 0 25 5 25 25 0 20 -5 25 -25 25 -20
0 -25 -5 -25 -25z"/>
</g>
</svg>
